<svg xmlns="http://www.w3.org/2000/svg" width="245" height="245" viewBox="0 0 245 245">
  <g id="Exclusion_1" data-name="Exclusion 1" fill="#efea62">
    <path d="M 122.5002059936523 244.5004272460938 C 106.0299530029297 244.5004272460938 90.05270385742188 241.2748260498047 75.01229858398438 234.9132385253906 C 60.48461151123047 228.7685852050781 47.43736267089844 219.9718627929688 36.23298645019531 208.7674255371094 C 25.02854919433594 197.5630493164062 16.23183059692383 184.5157928466797 10.08717441558838 169.9881134033203 C 3.725612163543701 154.9477386474609 0.5000184774398804 138.9705200195312 0.5000184774398804 122.5002059936523 C 0.5000184774398804 106.0298919677734 3.725612163543701 90.05267333984375 10.08717441558838 75.01229858398438 C 16.23183059692383 60.48461151123047 25.02854919433594 47.43736267089844 36.23298645019531 36.23298645019531 C 47.43736267089844 25.02854919433594 60.48461151123047 16.23183059692383 75.01229858398438 10.08717441558838 C 90.05267333984375 3.725612163543701 106.0298919677734 0.5000184774398804 122.5002059936523 0.5000184774398804 C 138.9705200195312 0.5000184774398804 154.9477386474609 3.725612163543701 169.9881134033203 10.08717441558838 C 184.5157928466797 16.23183059692383 197.5630493164062 25.02854919433594 208.7674255371094 36.23298645019531 C 219.9718627929688 47.43736267089844 228.7685852050781 60.48461151123047 234.9132385253906 75.01229858398438 C 241.2748260498047 90.05270385742188 244.5004272460938 106.0299530029297 244.5004272460938 122.5002059936523 C 244.5004272460938 138.970458984375 241.2748260498047 154.9477081298828 234.9132385253906 169.9881134033203 C 228.7685852050781 184.5157928466797 219.9718627929688 197.5630493164062 208.7674255371094 208.7674255371094 C 197.5630493164062 219.9718627929688 184.5157928466797 228.7685852050781 169.9881134033203 234.9132385253906 C 154.9477081298828 241.2748260498047 138.970458984375 244.5004272460938 122.5002059936523 244.5004272460938 Z M 122.5002059936523 27.76845550537109 C 70.26495361328125 27.76845550537109 27.76845550537109 70.26495361328125 27.76845550537109 122.5002059936523 C 27.76845550537109 174.7342987060547 70.26495361328125 217.2298278808594 122.5002059936523 217.2298278808594 C 174.7342987060547 217.2298278808594 217.2298278808594 174.7342987060547 217.2298278808594 122.5002059936523 C 217.2298278808594 70.26495361328125 174.7342987060547 27.76845550537109 122.5002059936523 27.76845550537109 Z" stroke="none"/>
    <path d="M 122.5002059936523 244.0004272460938 C 138.9031677246094 244.0004272460938 154.8148956298828 240.7881164550781 169.7933349609375 234.4527435302734 C 184.2614288330078 228.3332672119141 197.2552642822266 219.5725555419922 208.4138946533203 208.4138946533203 C 219.5725555419922 197.2552642822266 228.3332672119141 184.2614288330078 234.4527435302734 169.7933349609375 C 240.7881164550781 154.8148956298828 244.0004272460938 138.9031677246094 244.0004272460938 122.5002059936523 C 244.0004272460938 106.0972366333008 240.7881164550781 90.18551635742188 234.4527435302734 75.20708465576172 C 228.3332672119141 60.73898696899414 219.5725555419922 47.74514389038086 208.4138946533203 36.58651733398438 C 197.2552642822266 25.4278621673584 184.2614288330078 16.66714286804199 169.7933349609375 10.54767513275146 C 154.8149261474609 4.212299823760986 138.9032440185547 1.00001847743988 122.5002059936523 1.00001847743988 C 106.0971755981445 1.00001847743988 90.18548583984375 4.212299823760986 75.20708465576172 10.54767513275146 C 60.73898696899414 16.66714286804199 47.74514389038086 25.4278621673584 36.58651733398438 36.58651733398438 C 25.4278621673584 47.74514389038086 16.66714286804199 60.73898696899414 10.54767513275146 75.20708465576172 C 4.212299823760986 90.18548583984375 1.00001847743988 106.0971755981445 1.00001847743988 122.5002059936523 C 1.00001847743988 138.9032440185547 4.212299823760986 154.8149261474609 10.54767513275146 169.7933349609375 C 16.66714286804199 184.2614288330078 25.4278621673584 197.2552642822266 36.58651733398438 208.4138946533203 C 47.74514389038086 219.5725555419922 60.73898696899414 228.3332672119141 75.20708465576172 234.4527435302734 C 90.18551635742188 240.7881164550781 106.0972366333008 244.0004272460938 122.5002059936523 244.0004272460938 M 122.5002059936523 27.26845550537109 C 175.0099945068359 27.26845550537109 217.7298278808594 69.98923492431641 217.7298278808594 122.5002059936523 C 217.7298278808594 175.0099945068359 175.0099945068359 217.7298278808594 122.5002059936523 217.7298278808594 C 69.98923492431641 217.7298278808594 27.26845550537109 175.0099945068359 27.26845550537109 122.5002059936523 C 27.26845550537109 69.98923492431641 69.98923492431641 27.26845550537109 122.5002059936523 27.26845550537109 M 122.5002059936523 245.0004272460938 C 105.9627075195312 245.0004272460938 89.919921875 241.7615509033203 74.81752014160156 235.3737335205078 C 60.2302360534668 229.203857421875 47.12958145141602 220.3711700439453 35.87942504882812 209.1209869384766 C 24.62923812866211 197.8708343505859 15.79654979705811 184.7701721191406 9.626674652099609 170.1828918457031 C 3.238862276077271 155.0804901123047 1.84936525329249e-05 139.0377044677734 1.84936525329249e-05 122.5002059936523 C 1.84936525329249e-05 105.9627075195312 3.238862276077271 89.919921875 9.626674652099609 74.81752014160156 C 15.79654979705811 60.2302360534668 24.62923812866211 47.12958145141602 35.87942504882812 35.87942504882812 C 47.12958145141602 24.62923812866211 60.2302360534668 15.79654979705811 74.81752014160156 9.626674652099609 C 89.919921875 3.238862276077271 105.9627075195312 1.84936525329249e-05 122.5002059936523 1.84936525329249e-05 C 139.0377044677734 1.84936525329249e-05 155.0804901123047 3.238862276077271 170.1828918457031 9.626674652099609 C 184.7701721191406 15.79654979705811 197.8708343505859 24.62923812866211 209.1209869384766 35.87942504882812 C 220.3711700439453 47.12958145141602 229.203857421875 60.2302360534668 235.3737335205078 74.81752014160156 C 241.7615509033203 89.919921875 245.0004272460938 105.9627075195312 245.0004272460938 122.5002059936523 C 245.0004272460938 139.0377044677734 241.7615509033203 155.0804901123047 235.3737335205078 170.1828918457031 C 229.203857421875 184.7701721191406 220.3711700439453 197.8708343505859 209.1209869384766 209.1209869384766 C 197.8708343505859 220.3711700439453 184.7701721191406 229.203857421875 170.1828918457031 235.3737335205078 C 155.0804901123047 241.7615509033203 139.0377044677734 245.0004272460938 122.5002059936523 245.0004272460938 Z M 122.5002059936523 28.26845550537109 C 70.54061126708984 28.26845550537109 28.26845550537109 70.54061126708984 28.26845550537109 122.5002059936523 C 28.26845550537109 174.4585876464844 70.54061126708984 216.7298278808594 122.5002059936523 216.7298278808594 C 174.4585876464844 216.7298278808594 216.7298278808594 174.4585876464844 216.7298278808594 122.5002059936523 C 216.7298278808594 70.54061126708984 174.4585876464844 28.26845550537109 122.5002059936523 28.26845550537109 Z" stroke="none" fill="#f7df8c"/>
  </g>
</svg>
